<svg xmlns="http://www.w3.org/2000/svg" xmlns:xlink="http://www.w3.org/1999/xlink" width="10" height="10" viewBox="0 0 10 10">
  <defs>
    <linearGradient id="linear-gradient" x2="1" y2="1" gradientUnits="objectBoundingBox">
      <stop offset="0" stop-color="#002e9f"/>
      <stop offset="1" stop-color="#00a4d2"/>
    </linearGradient>
  </defs>
  <path id="ic_note" d="M.589,10A.586.586,0,0,1,0,9.4V.571A.574.574,0,0,1,.589,0H5.654a.586.586,0,0,1,.588.6.586.586,0,0,1-.588.595H1.177V8.809H8.823V4.833a.589.589,0,1,1,1.177,0V9.4a.614.614,0,0,1-.612.6ZM3.394,6.6a.211.211,0,0,1-.058-.24L3.876,5a.189.189,0,0,1,.046-.08L8.742.068A.211.211,0,0,1,8.9,0a.231.231,0,0,1,.161.068L9.892.9a.194.194,0,0,1,0,.3L5.072,6.054a.208.208,0,0,1-.08.057l-1.357.537a.225.225,0,0,1-.089.018A.212.212,0,0,1,3.394,6.6Z" fill="url(#linear-gradient)"/>
</svg>
