<svg id="ic_new_enrolment" data-name="ic_new enrolment" xmlns="http://www.w3.org/2000/svg" width="30" height="30" viewBox="0 0 30 30">
  <g id="Path_123" data-name="Path 123" transform="translate(-178 2512)" fill="#43bd00" fill-rule="evenodd">
    <path d="M 193 -2482.49951171875 C 189.1269226074219 -2482.49951171875 185.4856719970703 -2484.0078125 182.7469635009766 -2486.74658203125 C 180.0082702636719 -2489.485107421875 178.5 -2493.12646484375 178.5 -2496.99951171875 C 178.5 -2500.872802734375 180.0082702636719 -2504.514404296875 182.7469635009766 -2507.2529296875 C 185.4856262207031 -2509.99169921875 189.1268768310547 -2511.5 193 -2511.5 C 196.8731231689453 -2511.5 200.514404296875 -2509.99169921875 203.2530517578125 -2507.2529296875 C 205.9917449951172 -2504.514404296875 207.5 -2500.872802734375 207.5 -2496.99951171875 C 207.5 -2493.12646484375 205.9917449951172 -2489.485107421875 203.2530517578125 -2486.74658203125 C 200.5143432617188 -2484.0078125 196.8730773925781 -2482.49951171875 193 -2482.49951171875 Z" stroke="none"/>
    <path d="M 193 -2482.99951171875 C 196.7395172119141 -2482.99951171875 200.2552337646484 -2484.455810546875 202.8994903564453 -2487.10009765625 C 205.5437469482422 -2489.744384765625 207 -2493.260009765625 207 -2496.99951171875 C 207 -2500.7392578125 205.5437469482422 -2504.255126953125 202.8994903564453 -2506.8994140625 C 200.2552795410156 -2509.543701171875 196.7395629882812 -2511 193 -2511 C 189.2604370117188 -2511 185.7447357177734 -2509.543701171875 183.1005249023438 -2506.8994140625 C 180.4562530517578 -2504.255126953125 179 -2500.7392578125 179 -2496.99951171875 C 179 -2493.260009765625 180.4562530517578 -2489.744384765625 183.1005249023438 -2487.10009765625 C 185.7447814941406 -2484.455810546875 189.2604827880859 -2482.99951171875 193 -2482.99951171875 M 193 -2481.99951171875 C 184.7157592773438 -2481.99951171875 178 -2488.71533203125 178 -2496.99951171875 C 178 -2505.284423828125 184.7157592773438 -2512 193 -2512 C 201.2842712402344 -2512 208 -2505.284423828125 208 -2496.99951171875 C 208 -2488.71533203125 201.2842712402344 -2481.99951171875 193 -2481.99951171875 Z" stroke="none" fill="#3fb100"/>
  </g>
  <path id="Union_1" data-name="Union 1" d="M5.68,13V7.321H0V5.679H5.68V0H7.321V5.679H13V7.321H7.321V13Z" transform="translate(8.5 9)" fill="#fff"/>
</svg>
